<svg width="30" height="21" viewBox="0 0 30 21" fill="none" xmlns="http://www.w3.org/2000/svg">
<path d="M15 0C15 0 24.381 9.44761e-05 26.7207 0.626953C28.0115 0.971971 29.028 1.98855 29.373 3.2793C29.9996 5.61765 30 10.4949 30 10.5C30 10.5 29.9999 15.3811 29.373 17.7207C29.028 19.0114 28.0115 20.028 26.7207 20.373C24.381 20.9999 15 21 15 21C14.9965 21 5.61855 20.9998 3.2793 20.373C1.98855 20.028 0.971972 19.0114 0.626953 17.7207C9.8258e-05 15.3811 0 10.5 0 10.5C1.73377e-07 10.4949 0.000425931 5.61765 0.626953 3.2793C0.971972 1.98855 1.98855 0.971971 3.2793 0.626953C5.61855 0.00021112 14.9965 2.18175e-08 15 0ZM12 15L19.7939 10.5L12 6V15Z" fill="white"/>
</svg>
